<svg viewBox="0 0 512 512" fill="none" xmlns="http://www.w3.org/2000/svg">
  <rect width="512" height="512" rx="112" fill="#030712"/>
  <circle cx="256" cy="256" r="225" stroke="#f59e0b" stroke-width="4" stroke-dasharray="12 16" fill="none" opacity="0.25"/>
  <path d="M210 240 L302 240 L400 440 L112 440 Z" fill="#080c14" stroke="#f59e0b" stroke-width="8" stroke-linejoin="round"/>
  <path d="M256 440 L256 240" stroke="#f59e0b" stroke-width="10" stroke-dasharray="14 16" stroke-linecap="round" opacity="0.8"/>
  <g transform="translate(256, 345) scale(0.6)">
    <path d="M-20 70 Q0 80 20 70 L15 -30 Q0 -40 -15 -30 Z" fill="#f59e0b"/>
    <path d="M-8 -32 L-18 -60 M8 -32 L18 -60" stroke="#f59e0b" stroke-width="5" stroke-linecap="round"/>
    <circle cx="-18" cy="-60" r="6" fill="#f59e0b"/>
    <circle cx="18" cy="-60" r="6" fill="#f59e0b"/>
    <circle cx="0" cy="20" r="38" fill="#111827" stroke="#f59e0b" stroke-width="8"/>
    <path d="M0 -5 A 22 22 0 1 1 -15 25 A 12 12 0 1 1 -5 15" stroke="#f59e0b" stroke-width="5" fill="none" stroke-linecap="round"/>
  </g>
  <g transform="translate(256, 135) scale(1.15)">
    <circle cx="0" cy="0" r="50" fill="#030712" stroke="#ffffff" stroke-width="8"/>
    <circle cx="0" cy="0" r="38" fill="none" stroke="#ffffff" stroke-width="2" stroke-dasharray="4 6" opacity="0.3"/>
    <path d="M-18 -22 V2 M-11 -22 V2 M-4 -22 V2 M-18 -22 H-4 V2 M-11 2 V18" stroke="#f59e0b" stroke-width="4.5" stroke-linecap="round"/>
    <path d="M12 -22 L22 -15 L17 18 H10 L14 -22" fill="#f59e0b" stroke="#f59e0b" stroke-width="1"/>
  </g>
</svg>
